<svg xmlns="http://www.w3.org/2000/svg" viewBox="0 0 100 100" fill="none">
  <path d="M35 88C20 82 10 67 10 50C10 28 28 10 50 10C72 10 90 28 90 50C90 67 80 82 65 88" stroke="currentColor" stroke-width="3" stroke-linecap="round"/>
  
  <ellipse cx="50" cy="52" rx="8" ry="16" stroke="currentColor" stroke-width="3"/>
  <ellipse cx="50" cy="48" rx="3" ry="6" stroke="currentColor" stroke-width="2"/>
  
  <path d="M42 45C30 45 22 35 22 22C22 15 28 12 35 18L40 28" stroke="currentColor" stroke-width="3" stroke-linecap="round" stroke-linejoin="round"/>
  <path d="M35 18C42 12 48 18 43 28" stroke="currentColor" stroke-width="3" stroke-linecap="round"/>
  
  <path d="M58 45C70 45 78 35 78 22C78 15 72 12 65 18L60 28" stroke="currentColor" stroke-width="3" stroke-linecap="round" stroke-linejoin="round"/>
  <path d="M65 18C58 12 52 18 57 28" stroke="currentColor" stroke-width="3" stroke-linecap="round"/>
  <path d="M42 52H34M42 58H34M42 64H34" stroke="currentColor" stroke-width="2.5" stroke-linecap="round"/>
  <path d="M58 52H66M58 58H66M58 64H66" stroke="currentColor" stroke-width="2.5" stroke-linecap="round"/>
  <path d="M45 68H55M43 74H57M42 80C42 88 58 88 58 80H42Z" stroke="currentColor" stroke-width="3" stroke-linecap="round" stroke-linejoin="round"/>
  <path d="M47 38C44 32 38 28 32 28M53 38C56 32 62 28 68 28" stroke="currentColor" stroke-width="2" stroke-linecap="round"/>
</svg>
