<svg xmlns="http://www.w3.org/2000/svg" viewBox="0 0 100 100">
  <path d="M50 30c-5 0-9 4-9 10v15c0 5 4 9 9 9s9-4 9-9V40c0-6-4-10-9-10z" fill="currentColor"/>
  
  <path d="M44 66h12l1 6H43l1-6zM45 74h10l1 5H44l1-5z" fill="currentColor"/>
  <path d="M40 82c2 4 18 4 20 0l-3-4H43l-3 4z" fill="currentColor"/>
  
  <path d="M38 45c-2-5-8-8-14-5-5 2-7 9-4 14 2 3 6 5 10 4l8-13z" fill="currentColor"/>
  <path d="M22 38c-3-4-10-4-14 0-3 3-3 9 1 12 3 3 8 3 11 0l2-12z" fill="#F1FAEE" opacity="0.3"/>
  <path d="M38 45s-5-10-15-8" fill="none" stroke="currentColor" stroke-width="3" stroke-linecap="round"/>
  <path d="M62 45c2-5 8-8 14-5 5 2 7 9 4 14-2 3-6 5-10 4l-8-13z" fill="currentColor"/>
  <path d="M78 38c3-4 10-4 14 0 3 3 3 9-1 12-3 3-8 3-11 0l-2-12z" fill="#F1FAEE" opacity="0.3"/>
  <path d="M62 45s5-10 15-8" fill="none" stroke="currentColor" stroke-width="3" stroke-linecap="round"/>
  <path d="M41 50l-8 2M41 55l-8 3M59 50l8 2M59 55l8 3" stroke="currentColor" stroke-width="2" stroke-linecap="round"/>
  
  <path d="M46 32c-2-5-8-10-14-12M54 32c2-5 8-10 14-12" fill="none" stroke="currentColor" stroke-width="1.5" stroke-linecap="round"/>
</svg>
